<svg xmlns="http://www.w3.org/2000/svg" viewBox="0 0 87.87 831.65"><defs><style>.cls-1{fill:#dfae5d;}</style></defs><g id="Layer_2" data-name="Layer 2"><g id="Layer_1-2" data-name="Layer 1"><path class="cls-1" d="M64.77,117.36a140.58,140.58,0,0,0-.14,15.9c.31,6.49.84,13,1.73,19.4h0c.46,3.32,1,6.6,1.67,9.88.14.71.29,1.42.44,2.13,0,.08,0,.15,0,.23.23,1.31.63,2.58,1,3.86l1,3.85,1.21,3.78.61,1.89c.2.63.47,1.24.7,1.85l1.45,3.7,1.69,3.59c.29.59.54,1.2.86,1.78l1,1.73c.67,1.14,1.24,2.34,2,3.42l2.18,3.32,2.37,3.19c1.09,1.39,2.19,2.76,3.35,4.09v2.3a73.82,73.82,0,0,1-9.62-11.79c-.81-1.09-1.43-2.31-2.15-3.46l-1-1.76c-.34-.58-.62-1.2-.94-1.8L72.3,184.8,70.71,181c-.26-.63-.55-1.24-.78-1.88l-.67-1.93-1.32-3.85-1.07-3.92c-.34-1.32-.76-2.61-1-3.94,0-.16-.07-.32-.11-.48-.15-.66-.29-1.31-.43-2-.85-4-1.53-8.12-2.07-12.22h0c-.79-5.79-1.29-11.62-1.62-17.43a139.81,139.81,0,0,1,.21-16.25c.4-5.41,1.11-10.77,2-16.1C67.53,79.74,74.6,59.23,83,39.47c1.56-3.69,3.17-7.34,4.83-11v5.17Q86.46,37,85.09,40.33c-4,9.9-7.7,20-10.88,30.15a233,233,0,0,0-7.56,31.05C65.8,106.78,65.13,112.06,64.77,117.36Z"/><path class="cls-1" d="M87.87,266.63v2.75l-.63.12c-3.06.58-6.09,1.28-9.1,2s-6,1.48-9,2.5h0a.34.34,0,0,1-.44-.22.35.35,0,0,1,.14-.41c.67-.42,1.36-.83,2.06-1.23s1.44-.69,2.16-1a46.24,46.24,0,0,1,4.46-1.68c3-1,6.07-1.79,9.13-2.54Z"/><path class="cls-1" d="M69.07,405c-.56,3.9-1.26,7.79-2.09,11.64-.17.83-.35,1.65-.55,2.47-.88,3.89-1.9,7.75-3,11.58-2.39,8.42-4.77,16.84-7.26,25.24s-5,16.78-8.13,25q-1.16,3.09-2.51,6.13l-2.74,6c-1.85,4-3.71,7.94-5.61,11.89q-5.68,11.84-11.66,23.55T13.07,551.67C9,558.94,4.7,566.15,0,573.11v-5.36c3.75-5.68,7.26-11.54,10.68-17.45,4.36-7.55,8.54-15.23,12.59-23s8-15.54,11.85-23.38q2.9-5.88,5.71-11.81l2.78-5.93q1.35-2.94,2.52-6c3.12-8.12,5.73-16.47,8.32-24.81L62,430.27c1.3-4.18,2.47-8.39,3.48-12.64.19-.82.38-1.63.56-2.44h0q1.16-5.15,2-10.35c.68-4.31,1.17-8.65,1.43-13a73.86,73.86,0,0,0-.27-13v0a.27.27,0,0,1,.24-.27.28.28,0,0,1,.31.24C70.92,387.45,70.27,396.31,69.07,405Z"/><path class="cls-1" d="M87.87,448.81v3.29l-1.19-1.8L76,433.77q-4.74-7.35-9.54-14.67c-.32-.49-.65-1-1-1.47-3.7-5.58-7.46-11.1-11.35-16.54l-2.87-4-3-3.92a90.91,90.91,0,0,0-6.37-7.35A70.16,70.16,0,0,0,29.18,375.4c-.8-.52-1.61-1-2.44-1.49l-.49-.28a80,80,0,0,0-17.37-7.18C6,365.58,3,364.84,0,364.14v-2.82c3.21.85,6.42,1.72,9.61,2.73a83.93,83.93,0,0,1,16.22,6.75q1,.56,2,1.17l.94.58a72.61,72.61,0,0,1,14.56,11.92,98.52,98.52,0,0,1,6.41,7.59l3,4,2.89,4c3.56,5,7,10.05,10.4,15.16h0c.32.48.64,1,1,1.44,3.55,5.36,7,10.76,10.51,16.17S84.35,443.52,87.87,448.81Z"/><path class="cls-1" d="M30.85,409.32c-.81,19.43-5.49,38.49-12.11,56.62C12.46,483.33,6.09,500.64,0,518.06v-8.21q8.49-22.28,16.63-44.66c6.5-18,11.06-36.85,11.76-56a186.62,186.62,0,0,0-1.22-28.64c-.29-2.31-.59-4.63-.92-6.94-.13-.95-.27-1.89-.42-2.83-.22-1.49-.45-3-.7-4.47-.15-.92-.3-1.85-.46-2.77s-.3-1.79-.47-2.67c-.1-.54-.21-1.08-.32-1.62-.23-1.17-.43-2.34-.7-3.5l-.86-3.46A63,63,0,0,0,9.9,327.16,81.47,81.47,0,0,0,0,317.41v-3.52a91.76,91.76,0,0,1,12,11.53,65.82,65.82,0,0,1,13,26.19l.89,3.55c.28,1.19.48,2.39.72,3.58q.21,1,.39,2c.16.82.3,1.64.43,2.46s.29,1.78.43,2.67c.35,2.2.68,4.42,1,6.64.13.95.26,1.9.37,2.85.22,1.63.42,3.25.61,4.88A187.7,187.7,0,0,1,30.85,409.32Z"/><path class="cls-1" d="M64,0c-.55,1.36-1.09,2.73-1.61,4.11-2.6,6.77-5,13.64-7.31,20.51C50.79,37.35,46.77,50.17,42.86,63S35.23,88.77,32,101.78c-.88,3.52-1.73,7.06-2.51,10.6q-1,4.49-1.82,9a131.17,131.17,0,0,0-2.49,19.86.2.2,0,0,1-.21.2.21.21,0,0,1-.2-.17,50.78,50.78,0,0,1-.39-10.16A94.69,94.69,0,0,1,25.45,121c.61-4,1.36-7.87,2.2-11.76.57-2.71,1.18-5.4,1.82-8.09,3.19-13.1,7-26,10.93-38.89s7.8-25.73,12-38.52c2.32-7,4.67-13.92,7.27-20.8.37-1,.75-2,1.13-2.95Z"/><path class="cls-1" d="M87.87,13.53V16.8l-.58-.25-.14-.06-1.34-.58-.28-.12L83.69,15c-6.81-2.93-14.91-6.44-21.87-9.47l-.06,0c-.89-.4-1.75-.77-2.58-1.13l-.07,0-6.73-3A1.48,1.48,0,0,1,51.49,0H56.7l3.54,1.55.06,0c.84.35,1.71.74,2.6,1.13l.06,0C70.57,6.05,79.55,9.94,86.72,13l.28.12Z"/><path class="cls-1" d="M87.87,14v2.34l-.22,0-.5.08q-3.29.53-6.53,1.27l-1.6.41a22.76,22.76,0,0,0-3.49,1.2,9.49,9.49,0,0,0-1,.5,4.12,4.12,0,0,0-.45.27l-.06,0a.52.52,0,0,1-.74-.15.57.57,0,0,1-.08-.38.52.52,0,0,1,.16-.3,11.79,11.79,0,0,1,3.24-2.05c.57-.25,1.15-.48,1.73-.71l1.75-.6c1.18-.37,2.37-.7,3.56-1,.81-.21,1.63-.4,2.44-.58l1.11-.24Z"/><path class="cls-1" d="M87.87,161.25v3.12a1.52,1.52,0,0,1-.55-.1c-.95-.38-1.93-.77-2.94-1.2q-1.92-.8-3.78-1.62c-5-2.21-9.7-4.52-14-6.92l-1-.56-.76-.43-1.33-.78q-.53-.3-1.05-.63l-.72-.45c-9.59-5.92-16.73-12.24-21.23-18.79C36.77,127.4,33.07,121.3,29,114.52l-.82-1.37-.14-.23-.88-1.49h0L26.36,110C18.57,96.9,9.74,82.05,0,72.22V69.88A1.48,1.48,0,0,1,2,70c9.71,9.75,18.41,24.15,26.12,37.11.27.47.55.93.82,1.39l1,1.78c.23.37.45.75.67,1.12l.14.23c4.33,7.29,8.25,13.8,12.21,19.58,4.2,6.14,10.93,12.1,20,17.73l1,.64.72.44,1.35.8,1,.55.77.44a169,169,0,0,0,17.69,8.52C86.34,160.64,87.11,161,87.87,161.25Z"/><path class="cls-1" d="M87.87,162.09v3c-1.37-.27-2.76-.47-4.15-.64a61.63,61.63,0,0,0-8.92-.28c-2.11.08-4.22.27-6.33.52l-2.66.35h0c-3,.41-6,.92-9,1.29a.43.43,0,0,1-.48-.38.43.43,0,0,1,.29-.45,75,75,0,0,1,8.75-2.43c.89-.19,1.8-.36,2.7-.52,2.18-.39,4.39-.68,6.61-.88a53.7,53.7,0,0,1,6-.22c1.13,0,2.27.07,3.4.16l1,.08C85.94,161.79,86.91,161.92,87.87,162.09Z"/><path class="cls-1" d="M87.87,240.12v3q-3.9,1.59-7.82,3.1c-8.85,3.41-17.78,6.6-26.75,9.64s-18,5.94-27.06,8.67c-8.7,2.62-17.43,5.1-26.24,7.33V270.1c8.6-2.29,17.14-4.83,25.64-7.5q13.53-4.23,26.9-9c8.91-3.14,17.77-6.42,26.54-9.91Q83.49,242,87.87,240.12Z"/><path class="cls-1" d="M21.37,271.71a48.3,48.3,0,0,1-5.72,1.43c-1.92.38-3.84.71-5.78,1-3.27.44-6.54.85-9.87,1v-2.91c1.29,0,2.58,0,3.87-.07,1.92-.06,3.85-.16,5.77-.3s3.84-.26,5.75-.47,3.82-.44,5.68-.81h0a.57.57,0,0,1,.28,1.1Z"/><path class="cls-1" d="M55.61,733.28a140.6,140.6,0,0,0-.14,15.9,191.72,191.72,0,0,0,3.9,31.65c.23,1.31.62,2.58.94,3.87l1,3.84,1.22,3.78.6,1.89c.21.63.48,1.24.71,1.86l1.45,3.69L67,803.35c.29.59.55,1.2.87,1.78l1,1.73c.67,1.14,1.24,2.34,2,3.42L73,813.61l2.38,3.18c1.64,2.09,3.31,4.15,5.14,6.09,2.35,2.56,4.83,5,7.36,7.42v1.35c-2.9-2.46-5.74-5-8.44-7.74A75.85,75.85,0,0,1,69.1,811.39c-.81-1.09-1.44-2.3-2.15-3.46l-1-1.75c-.35-.59-.62-1.21-.94-1.81l-1.83-3.65L61.56,797c-.26-.62-.55-1.24-.78-1.88l-.67-1.92-1.33-3.86-1.07-3.92c-.34-1.31-.75-2.61-1-3.94a193.44,193.44,0,0,1-4.23-32.11,142.06,142.06,0,0,1,.22-16.25c.28-3.85.73-7.68,1.28-11.49.13-.93.28-1.87.42-2.8l.3-1.81a250.47,250.47,0,0,1,12.21-44.11h0c2.17-5.89,4.52-11.71,7-17.47,4.31-10.18,9-20.17,14-30v3.8c-4.18,9-8.21,18-11.94,27.1Q72.35,665,69.19,674,67,680.16,65.05,686.4a234.55,234.55,0,0,0-7.56,31.05l0,.2c-.15,1-.3,1.89-.44,2.84C56.39,724.74,55.9,729,55.61,733.28Z"/><path class="cls-1" d="M87.87,534.61v2.54c-2.47,1.44-4.93,2.9-7.25,4.58h0a.35.35,0,0,1-.49-.08.33.33,0,0,1,0-.43c.52-.6,1.07-1.19,1.62-1.77s1.18-1.07,1.78-1.61c1.22-1,2.48-2,3.79-2.88Z"/><path class="cls-1" d="M87.87,597.66v3.19a29.93,29.93,0,0,0-6.43,3.9,65.53,65.53,0,0,0-8.09,7.56,143.39,143.39,0,0,0-13.66,17.76,215.14,215.14,0,0,0-11.41,19.4c-2,3.77-3.82,7.59-5.54,11.48-1.31,3-2.54,6-3.65,9-1.29,3.49-2.31,7.11-3.42,10.73l-3.22,10.85q-3.17,10.86-6,21.8c-1.39,5.5-2.77,11-4,16.54-.17.78-.34,1.56-.5,2.35-.21,1-.41,2.06-.61,3.1-1.38,7.38-2.74,14.76-3,22.29a.21.21,0,0,1-.21.2.21.21,0,0,1-.2-.17,47.12,47.12,0,0,1-.48-5.7c0-1.91,0-3.82.16-5.72a110,110,0,0,1,1.38-11.32c.11-.63.22-1.26.34-1.89s.28-1.53.43-2.29q1.72-9.11,4.06-18c1.87-7.34,3.93-14.62,6.07-21.87L33.2,680l1.66-5.42c.55-1.82,1.15-3.64,1.8-5.44q1.71-4.73,3.73-9.31c1.7-3.91,3.55-7.76,5.5-11.55a217.33,217.33,0,0,1,11.47-19.7,146.41,146.41,0,0,1,13.86-18.18,68.7,68.7,0,0,1,8.41-7.93A30.13,30.13,0,0,1,87.87,597.66Z"/><path class="cls-1" d="M87.87,681.52v3.35l-19.18-9.46-2.3-1.13-24.24-12-2.35-1.17L29.34,656a1.5,1.5,0,1,1,1.34-2.68L41,658.41l2.37,1.16,24.07,11.88,2.26,1.11Z"/><path class="cls-1" d="M87.87,514.74v2.81q-4.74,2-9.3,4.36a80.67,80.67,0,0,0-12.87,8.16,35.45,35.45,0,0,0-5.44,5.23,16.74,16.74,0,0,0-3.47,6.5v0a.54.54,0,0,1-1.06-.23,17,17,0,0,1,3.34-7.23,37.86,37.86,0,0,1,5.46-5.71,77.87,77.87,0,0,1,13-8.77C80.87,518,84.34,516.31,87.87,514.74Z"/><path class="cls-1" d="M32.1,789.38a.41.41,0,0,1-.26.47c-2.82,1.19-5.69,2.22-8.49,3.35a85.81,85.81,0,0,0-8.24,3.69,60.53,60.53,0,0,0-7.62,4.65,46.84,46.84,0,0,0-6.65,5.83h0a1.4,1.4,0,0,1-.83.45V804a43.53,43.53,0,0,1,5.85-4.75A53.68,53.68,0,0,1,14,794.64,76.8,76.8,0,0,1,31.6,789,.42.42,0,0,1,32.1,789.38Z"/><path class="cls-1" d="M87.87,705.06v3.19c-6.07,2.74-12.23,5.22-18.42,7.62q-6.2,2.39-12.43,4.62c-1,.38-2,.74-3,1.1q-5.62,2-11.28,3.92Q32.38,729,22,732.24l-2.58.79-3.76,1.15Q7.84,736.52,0,738.69V736.8c5-1.45,10-3,15-4.54l4.78-1.52,2.65-.85q9.78-3.18,19.46-6.59,6.26-2.2,12.47-4.51l3.06-1.14q5.52-2.08,11-4.27C75,710.76,81.52,708,87.87,705.06Z"/><path class="cls-1" d="M23.71,622.17A47.82,47.82,0,0,1,18,623.6c-1.92.38-3.84.71-5.78,1A107.89,107.89,0,0,1,.49,625.7a1.33,1.33,0,0,1-.49-.08v-2.84a1.16,1.16,0,0,1,.42-.08H.5c1.88,0,3.8,0,5.72-.05s3.84-.16,5.76-.3,3.84-.27,5.75-.47,3.82-.44,5.68-.81h0a.57.57,0,0,1,.28,1.1Z"/><path class="cls-1" d="M38.26,359.63a18.62,18.62,0,0,1-5.14,2.42,40.93,40.93,0,0,1-5.51,1.16l-.21,0c-.91.12-1.82.23-2.73.32s-1.73.16-2.59.22l-2.76.17c-.94,0-1.88.05-2.82,0a50.75,50.75,0,0,1-11.19-1.43A54.2,54.2,0,0,1,0,360.94v-3.41a60.06,60.06,0,0,0,6.08,1.88,56.47,56.47,0,0,0,10.5,1.53c.88,0,1.77,0,2.65,0L22,361c.75,0,1.5,0,2.25-.06.93,0,1.85-.05,2.77-.11l.39,0a27.18,27.18,0,0,0,10.33-2.13.57.57,0,0,1,.76.28A.57.57,0,0,1,38.26,359.63Z"/><ellipse class="cls-1" cx="60.75" cy="193.92" rx="1.06" ry="2.12" transform="translate(-90.17 57.84) rotate(-30.57)"/><ellipse class="cls-1" cx="61.84" cy="188.9" rx="1.92" ry="1.24" transform="translate(-30.57 12.92) rotate(-9.58)"/><ellipse class="cls-1" cx="57.27" cy="184.48" rx="2.12" ry="1.68" transform="translate(-132.11 222.55) rotate(-84.12)"/><ellipse class="cls-1" cx="57.2" cy="189.87" rx="1.41" ry="1.76" transform="translate(-30.79 12.16) rotate(-9.58)"/><ellipse class="cls-1" cx="53.6" cy="189.76" rx="0.88" ry="1.59" transform="translate(-139.16 231.27) rotate(-86.38)"/><ellipse class="cls-1" cx="55.94" cy="194.1" rx="1.32" ry="0.88" transform="translate(-140.52 241.1) rotate(-87.38)"/><ellipse class="cls-1" cx="52.72" cy="169.15" rx="2.03" ry="1.59" transform="translate(-27.41 11.13) rotate(-9.58)"/><ellipse class="cls-1" cx="57.44" cy="173.27" rx="1.49" ry="2.14" transform="translate(-94.41 71.97) rotate(-37.95)"/><ellipse class="cls-1" cx="54.3" cy="163.43" rx="1.54" ry="1.92" transform="translate(-10.87 4.02) rotate(-3.86)"/><ellipse class="cls-1" cx="52.76" cy="174.45" rx="2.24" ry="1.39" transform="translate(-127.53 201.16) rotate(-81.6)"/><ellipse class="cls-1" cx="48.46" cy="170.94" rx="2.03" ry="1.39" transform="translate(-57.04 27.97) rotate(-20.6)"/><ellipse class="cls-1" cx="50.29" cy="164.28" rx="1.07" ry="1.92" transform="matrix(0.8, -0.6, 0.6, 0.8, -88.53, 63.06)"/><ellipse class="cls-1" cx="57.7" cy="167.41" rx="1.92" ry="1.17" transform="translate(-34.38 16.16) rotate(-12.32)"/><ellipse class="cls-1" cx="25.66" cy="154.92" rx="3.57" ry="2.65" transform="translate(-49.67 17.14) rotate(-19.26)"/><ellipse class="cls-1" cx="22.59" cy="163.49" rx="1.5" ry="3.84" transform="translate(-47.87 14.24) rotate(-17.41)"/><ellipse class="cls-1" cx="20.02" cy="149.07" rx="3" ry="1.99" transform="translate(-130.19 141.39) rotate(-79.42)"/><ellipse class="cls-1" cx="13.6" cy="151.27" rx="1.9" ry="2.96" transform="translate(-94.71 44.79) rotate(-40.35)"/><ellipse class="cls-1" cx="13.67" cy="158.33" rx="3.26" ry="1.37" transform="translate(-42.79 9.78) rotate(-15.88)"/><ellipse class="cls-1" cx="19.77" cy="156.85" rx="1.5" ry="1.28" transform="translate(-52.38 16.19) rotate(-19.97)"/><ellipse class="cls-1" cx="73.46" cy="20.82" rx="1.63" ry="1.19" transform="translate(-2.44 12.51) rotate(-9.58)"/><ellipse class="cls-1" cx="78.91" cy="22.78" rx="1.06" ry="2.12" transform="translate(30.03 88.78) rotate(-69.58)"/><ellipse class="cls-1" cx="73.01" cy="16.87" rx="1.6" ry="1.15" transform="translate(54.23 89.42) rotate(-88.5)"/><ellipse class="cls-1" cx="67.45" cy="19.42" rx="1.1" ry="1.76" transform="translate(34.22 81.24) rotate(-77.8)"/><ellipse class="cls-1" cx="72.84" cy="25.26" rx="1.72" ry="1.06" transform="translate(12.39 73.12) rotate(-57.5)"/><ellipse class="cls-1" cx="77.26" cy="18.6" rx="1.9" ry="0.93" transform="translate(-0.98 32.51) rotate(-23.61)"/><ellipse class="cls-1" cx="26.11" cy="267.98" rx="1.32" ry="0.82" transform="translate(-229.72 184.05) rotate(-66.27)"/><ellipse class="cls-1" cx="26.68" cy="272.9" rx="0.91" ry="1.62" transform="translate(-167.75 79.55) rotate(-39.58)"/><ellipse class="cls-1" cx="22.31" cy="273.36" rx="1.71" ry="1" transform="translate(-233.56 174.6) rotate(-64.23)"/><ellipse class="cls-1" cx="21.99" cy="268.62" rx="0.88" ry="1.32" transform="translate(-166.1 75.58) rotate(-39.58)"/><ellipse class="cls-1" cx="24.42" cy="270.5" rx="0.79" ry="0.88" transform="translate(-44.67 7.83) rotate(-9.58)"/><ellipse class="cls-1" cx="65.25" cy="275.96" rx="1.38" ry="1.29" transform="translate(-45.01 14.7) rotate(-9.58)"/><ellipse class="cls-1" cx="64.05" cy="270.44" rx="1.12" ry="2.53" transform="translate(-65.11 24.36) rotate(-14.37)"/><ellipse class="cls-1" cx="59.27" cy="273.72" rx="1.26" ry="2.26" transform="translate(-202.87 175.14) rotate(-57.17)"/><ellipse class="cls-1" cx="60.44" cy="278.89" rx="2.74" ry="1.5" transform="translate(-171.75 112.99) rotate(-42.23)"/><ellipse class="cls-1" cx="66.42" cy="281.49" rx="1.26" ry="2.82" transform="translate(-45.91 14.98) rotate(-9.58)"/><ellipse class="cls-1" cx="36.06" cy="336.46" rx="1.24" ry="1.44" transform="translate(-55.48 10.69) rotate(-9.58)"/><ellipse class="cls-1" cx="38.19" cy="331.67" rx="2.22" ry="1.42" transform="translate(-275.95 218.63) rotate(-63.64)"/><ellipse class="cls-1" cx="40.13" cy="337.05" rx="1.03" ry="1.65" transform="translate(-296.69 294.98) rotate(-76.09)"/><ellipse class="cls-1" cx="35.48" cy="340.82" rx="1.76" ry="1.12" transform="translate(-301.33 277.78) rotate(-73.46)"/><ellipse class="cls-1" cx="32.91" cy="332.45" rx="1.21" ry="2.21" transform="translate(-187.01 80.97) rotate(-35.52)"/><ellipse class="cls-1" cx="32.04" cy="336.86" rx="1.47" ry="0.97" transform="matrix(0.98, -0.18, 0.18, 0.98, -60.41, 11.35)"/><ellipse class="cls-1" cx="41.31" cy="352.21" rx="1.15" ry="2.03" transform="translate(-58.03 11.78) rotate(-9.58)"/><ellipse class="cls-1" cx="37.09" cy="354.42" rx="1.15" ry="2.09" transform="translate(-251.44 145.29) rotate(-48.09)"/><ellipse class="cls-1" cx="39.49" cy="362.45" rx="2.12" ry="1.12" transform="translate(-321.67 312.54) rotate(-75.91)"/><ellipse class="cls-1" cx="44.08" cy="362.25" rx="1.21" ry="1.91" transform="translate(-230.28 121.64) rotate(-41.81)"/><ellipse class="cls-1" cx="45.8" cy="356.02" rx="1.79" ry="0.94" transform="translate(-189.99 85.37) rotate(-33.73)"/><ellipse class="cls-1" cx="41.45" cy="357.62" rx="1.32" ry="1.91" transform="translate(-144.76 49.5) rotate(-24.54)"/><ellipse class="cls-1" cx="73.84" cy="369.48" rx="1.71" ry="1.24" transform="translate(-301.47 402.75) rotate(-83.76)"/><ellipse class="cls-1" cx="70.3" cy="363.31" rx="1.76" ry="3.74" transform="translate(-177.63 88.6) rotate(-31.11)"/><ellipse class="cls-1" cx="79.22" cy="366.01" rx="3.03" ry="1.71" transform="translate(-160.11 77.98) rotate(-27.51)"/><ellipse class="cls-1" cx="79.34" cy="373.95" rx="1.5" ry="2.97" transform="translate(-271.38 221.87) rotate(-54.58)"/><ellipse class="cls-1" cx="73.85" cy="377.27" rx="3.91" ry="1.41" transform="translate(-304.2 447.01) rotate(-89.38)"/><ellipse class="cls-1" cx="67.62" cy="371.46" rx="3.24" ry="2.21" transform="translate(-60.86 16.43) rotate(-9.58)"/><ellipse class="cls-1" cx="70.22" cy="277.37" rx="0.84" ry="1.81" transform="translate(-215.79 285.65) rotate(-77.45)"/></g></g></svg>