<svg xmlns="http://www.w3.org/2000/svg" viewBox="0 0 145.34 169.71"><defs><style>.cls-1{fill:#231f20;}.cls-2{fill:#ed4865;}</style></defs><g id="Layer_2" data-name="Layer 2"><g id="Layer_1-2" data-name="Layer 1"><path class="cls-1" d="M26.28,144.47c0,.72-.72,1.05-1.8,1.05h-10a51,51,0,0,1-3,4.74H18a1.59,1.59,0,0,0,1.2-.66l2.28.69c1.08.33.24,1.08.24,1.68v15.15c0,1.29-1.26,1.74-2.52,1.5v-2.1H7.62v.66c0,1.41-1.32,1.83-2.52,1.65V149.42l2,.39c.3.06.51.18.51.42v0h2.49a46.07,46.07,0,0,0,1.59-4.74H1.26c-.51,0-.66-.33-1.26-1.65H23.55c.54,0,.87-.36,1.47-1C25.74,143.54,26.28,143.9,26.28,144.47ZM7.62,151.88v5.67H19.17v-5.67Zm11.55,13v-5.7H7.62v5.7Z"/><path class="cls-1" d="M41.22,158.12a16.64,16.64,0,0,1-3.48,6.39,14.12,14.12,0,0,1-7.2,4c-.48.12-.6-.39-.27-.57a17.46,17.46,0,0,0,5.82-4.53,17.09,17.09,0,0,0,3-6.81l1.53.72C41.25,157.64,41.31,157.76,41.22,158.12ZM56,167.27c-1,.57-4.71,1-8.55.84-5.1-.21-5.25-.66-5.25-4.71v-7.14H36.12v.09c0,1.35-1.2,1.86-2.4,1.65V144.35l2,.39c.3.06.45.21.45.39h2.67a26.31,26.31,0,0,0,1.41-3.69l1.65,1c.63.36.69.6.21,1s-1.17,1.11-1.86,1.68h8a1.51,1.51,0,0,0,1.23-.66l2.07.66c1.11.36.33,1.05.33,1.68v9.39c0,1.23-1.2,1.65-2.4,1.47v-1.41h-4.8v8c0,1.35.06,1.71,1.59,1.83,2.82.21,6.3.09,7.62-.42.48-.18.66-.81.9-2.46a.23.23,0,0,1,.45,0c.3,1.53.51,2.13,1,2.55A.91.91,0,0,1,56,167.27ZM36.12,146.69v3.24h5.46v-3.24Zm0,8h5.46v-3.21H36.12Zm7.86-8v3.24h5.46v-3.24Zm5.46,8v-3.21H44v3.21Zm.9,5.52a7.81,7.81,0,0,1,2.7,2.37c.84,1.59-1,3.09-1.83,1.29l-.3-.66c-1.47.6-3,1.17-4.29,1.56-.63.21-.72.21-1.95-1.62l1.5-.18a33.53,33.53,0,0,0,1.5-5.25l1.41.66c.69.33.81.42.51.93a42.08,42.08,0,0,1-2.31,3.54c1.29-.15,2.4-.3,3.3-.45-.3-.78-.54-1.47-.72-1.83S49.92,160,50.34,160.22Z"/><path class="cls-1" d="M85.25,161.19a6.8,6.8,0,0,1-2.67,5.45,13.66,13.66,0,0,1-5.15,2.46,13.59,13.59,0,0,1-3.34.58c-.38,0-.56-.09-.56-.29s.2-.2.61-.32a13.5,13.5,0,0,0,6.19-3.55A6.46,6.46,0,0,0,82.2,161a7.29,7.29,0,0,0-1.08-3.95,5.3,5.3,0,0,0-3.66-2.46,14.8,14.8,0,0,1-1.79,4.16,28.6,28.6,0,0,1-3.55,4.83,8.92,8.92,0,0,1,.38,1.52q0,1.29-1,1.29-.67,0-1.17-.93c-2.13,1.95-4,2.93-5.74,2.93a2.85,2.85,0,0,1-1.91-.74,4.05,4.05,0,0,1-1.2-3.22,8.53,8.53,0,0,1,2-5,14.52,14.52,0,0,1,6-4.66c.1-1.09.24-2.38.44-3.86a26.77,26.77,0,0,1-2.78.14,4.86,4.86,0,0,1-3.14-1,2.25,2.25,0,0,1-.91-1.5.26.26,0,0,1,.3-.29,2.1,2.1,0,0,1,.41.26,2.58,2.58,0,0,0,.87.47,5.65,5.65,0,0,0,1.79.24,34.38,34.38,0,0,0,3.72-.24,24.17,24.17,0,0,0,.24-2.43,1.73,1.73,0,0,0-.68-1.47c-.45-.35-.67-.59-.67-.73s.26-.41.79-.41a6.06,6.06,0,0,1,2.11.56c1,.43,1.52.86,1.52,1.29a1.16,1.16,0,0,1-.23.55,3.68,3.68,0,0,0-.41.77c-.12.35-.27.88-.44,1.58,1.41-.24,2.67-.5,3.81-.79a5.88,5.88,0,0,0,1.11-.41,1.49,1.49,0,0,1,.62-.27,3.64,3.64,0,0,1,1.43.35c.61.26.91.55.91.88s-.43.79-1.29.94q-4,.76-6.27,1.09a7.21,7.21,0,0,0-.76.11,27.09,27.09,0,0,0-.47,3.46,17.51,17.51,0,0,1,4.48-.7v-.18a2.2,2.2,0,0,0-.11-.59,2.38,2.38,0,0,1-.12-.55c0-.18.1-.27.29-.27s.45.17.82.5a2.51,2.51,0,0,1,.71,1.12,8.41,8.41,0,0,1,5.94,2.87A7.37,7.37,0,0,1,85.25,161.19Zm-16-4.92A11.71,11.71,0,0,0,65.09,160a8.1,8.1,0,0,0-1.49,4.54c0,1,.44,1.55,1.32,1.55,1.34,0,2.93-.85,4.74-2.55a26,26,0,0,1-.47-5.27C69.19,157.56,69.21,156.89,69.25,156.27Zm6.42-1.76a14.75,14.75,0,0,0-4.37.79c0,.39,0,1.09,0,2.11a23.77,23.77,0,0,0,.3,4.07A20.46,20.46,0,0,0,75.67,154.51Z"/><path class="cls-1" d="M105.49,167.28a3.23,3.23,0,0,1-.44,1.73,1.21,1.21,0,0,1-1.08.7q-.8,0-1.17-1.2c-.28-1.07-.55-2.14-.82-3.19a67.94,67.94,0,0,0-4.22-9.93,17,17,0,0,0-1.91,1.43c-.33.34-.65.69-1,1.06a1.36,1.36,0,0,1-1,.41,3.78,3.78,0,0,1-2.58-1.38c-.8-.82-1.2-1.4-1.2-1.76s.15-.47.44-.47c-.06,0,.11.17.5.5a2.26,2.26,0,0,0,1.43.47c.71,0,2.18-.6,4.43-1.81-.45-.75-.91-1.45-1.38-2.11a12.79,12.79,0,0,0-1-1,1.34,1.34,0,0,1-.41-1c0-.68.47-1.32,1.41-1.93a4.1,4.1,0,0,1,2.23-.82c.37,0,.55.12.55.35,0,.06-.2.25-.61.56a1.22,1.22,0,0,0-.56.94,10.43,10.43,0,0,0,1.61,4q7.13-3.63,11.25-3.63a7.52,7.52,0,0,1,4.25,1.11,4.6,4.6,0,0,1,2,4.07,5.32,5.32,0,0,1-1.78,4.28,7.27,7.27,0,0,1-4.75,1.46,10.89,10.89,0,0,1-4.31-1,15.53,15.53,0,0,1-2.87-1.58c-.23-.2-.35-.35-.35-.44s.1-.24.29-.24c-.17,0,.34.19,1.56.56a14.91,14.91,0,0,0,3.83.5,9.52,9.52,0,0,0,3.43-.56,3.34,3.34,0,0,0,2.37-3.25,3.27,3.27,0,0,0-1.31-2.73,5,5,0,0,0-3-.9q-3.49,0-9.76,3.75a81.07,81.07,0,0,1,4.66,9.81c.06.14.33.72.82,1.76A3.35,3.35,0,0,1,105.49,167.28Zm2.67-19.19a.89.89,0,0,1-1,1,4.52,4.52,0,0,1-1.35-.56,15.82,15.82,0,0,0-3-.88c-.36-.08-.53-.19-.53-.35s.18-.29.56-.29c.91,0,1.37-.1,1.37-.29,0-.41-.84-1.08-2.52-2-.37-.19-.55-.36-.55-.49s.17-.21.52-.21a8.51,8.51,0,0,1,4.16,1.17C107.38,146.08,108.16,147,108.16,148.09Z"/><path class="cls-1" d="M133.24,163.39c0,.62-.38.93-1.12.93a2.85,2.85,0,0,1-1.87-1.14,18.18,18.18,0,0,1-2.7,3.28,3.61,3.61,0,0,1-2.37,1,3.19,3.19,0,0,1-2.55-1.35,6.17,6.17,0,0,1-1.23-4,11.16,11.16,0,0,1,4.37-9.14,19.18,19.18,0,0,0-1.44-3.23,3,3,0,0,0-1-1c-.25-.16-.38-.3-.38-.44,0-.31.37-.47,1.12-.47a2.44,2.44,0,0,1,1.9.7,7.34,7.34,0,0,1,1.26,2.82l.15.49a15.22,15.22,0,0,1,6.06-2,14.14,14.14,0,0,0,.56-3.1,1.87,1.87,0,0,0-.71-1.59c-.46-.37-.7-.59-.7-.67,0-.29.27-.44.82-.44a3.94,3.94,0,0,1,2.35,1c.84.62,1.26,1.15,1.26,1.58a3,3,0,0,1-.33,1.08,21.72,21.72,0,0,0-.82,2.08,9.91,9.91,0,0,1,7,2.9,9.48,9.48,0,0,1,2.44,6.77q0,6-6.45,8.56a20,20,0,0,1-7.32,1.4c-.34,0-.5-.09-.5-.26s.19-.24.58-.29a17.92,17.92,0,0,0,5.8-1.94,8.62,8.62,0,0,0,4.84-7.94,7.94,7.94,0,0,0-2-5.62,7.11,7.11,0,0,0-4.84-2.23,56.88,56.88,0,0,1-4,10.14,8.08,8.08,0,0,0,.61.61l.82.71A1.11,1.11,0,0,1,133.24,163.39Zm-4.31-2a24.11,24.11,0,0,1-1.55-3.52c-.24-.76-.6-1.89-1.09-3.37a10.26,10.26,0,0,0-2.93,7.32,4.87,4.87,0,0,0,.5,2.29,1.54,1.54,0,0,0,1.26.91Q126.79,165,128.93,161.34Zm-1.17-8.18a33.06,33.06,0,0,0,2.4,6,46.65,46.65,0,0,0,2.9-7.94A11.29,11.29,0,0,0,127.76,153.16Z"/><path class="cls-2" d="M26.76,56.09c8.91,8.66,8.35,19.41,7.31,31.46,2.38-2.39,4.6-5.41,7-6.36C30.6,102.94,39,115.27,56.15,127.11c-19.36,1.23-38.06-12.19-31-34.8,1.27-4.61,3.81-6.51,4-14C29.58,68.28,26,62.35,26.76,56.09Z"/><path class="cls-2" d="M32.16,45.76C44.55,45.1,59.64,59.27,59,70.54,48.38,73.74,34.93,58,32.16,45.76Z"/><path class="cls-2" d="M83.48,70.66c.18-20.86,14.18-18.4,25.26-27.28C110.62,54.16,94.09,71.49,83.48,70.66Z"/><path class="cls-2" d="M123.36,65c-16.58,1.4-17.86,31.23-21.77,21.93-1-3.65-2.22-5.4-3.81-6,3.35,30.8,5.18,42.87-29.08,46.25,13.48.8,33.74,2.75,41.35-18.29C111.38,91.81,110.76,80.14,123.36,65Z"/><path class="cls-2" d="M80.46,118.21c-7.78.64-9.53,1.11-14.93,1-12.46,0-24.56-21.65-13-32.09,13-11.43,21.14-20.41,10.8-36.7C77.64,55.05,79,67.75,77.12,75.63c17-5.19,24.43,32.05,3.66,31.46-6.52-.16-13.35-7.38-12.71-12s5.88-2,7,0,4,5.25,6.67,3.18a6.17,6.17,0,0,0,.16-9.85c-8.72-5.73-25.76,3.69-22.4,15.73C58.51,111.4,78.71,115.73,80.46,118.21Z"/><path class="cls-2" d="M74,0c12.33,22.2-11.13,22.34,4.92,30.19,3,1.43,5.72,2.54,5.4,7-1,9.08-20.16,9.3-25.26,2.22C47.27,27.68,75.2,26.7,74,0Z"/></g></g></svg>