<svg xmlns="http://www.w3.org/2000/svg" viewBox="0 0 57.32 56.28"><defs><style>.cls-1{fill:#f39cb4;}.cls-2{fill:#d5d963;}</style></defs><g id="Layer_2" data-name="Layer 2"><g id="Layer_1-2" data-name="Layer 1"><path class="cls-1" d="M13.51,0l17,10.5s-4.16,4.12-3.84,7.05a68.11,68.11,0,0,0,.83,7.36c.14.54-.68.79-.95.29a12,12,0,0,0-3.78-4.51c-3.2-2-10.12-1.41-10.12-1.41Z"/><path class="cls-1" d="M0,43.39,20.56,44s-1.5-9.68,3.15-12.48l1-.71A.93.93,0,0,0,24,29.12l-1.92.52c-5.88.67-11.84-3.94-11.84-3.94Z"/><path class="cls-1" d="M31.55,30.62C36.6,36,38.7,35,45.14,34.73L43.58,56.28,28.91,45c3.44-4.53,2.38-12.28,1.54-14.3Z"/><path class="cls-1" d="M34.55,26c3.93-1.94,10,1.79,12.42,3.84C47,30,57.32,12,57.32,12l-22,.23c1.35,6.1,2.12,10.87-.86,13.11A4.6,4.6,0,0,1,34.55,26Z"/><path class="cls-2" d="M29.42,27.2a12.65,12.65,0,0,1-7.63-4.57c-.37-.47-1.08,0-1,.62.75,4.39,3.68,7.91,7.73,8.66s8.05-1.47,10.32-5.29c.34-.56-.17-1.24-.69-.93A12.56,12.56,0,0,1,29.42,27.2Z"/></g></g></svg>